<?xml version="1.0" standalone="no"?>
<!DOCTYPE svg PUBLIC "-//W3C//DTD SVG 20010904//EN"
 "http://www.w3.org/TR/2001/REC-SVG-20010904/DTD/svg10.dtd">
<svg version="1.0" xmlns="http://www.w3.org/2000/svg"
 width="1024.000000pt" height="1024.000000pt" viewBox="0 0 1024.000000 1024.000000"
 preserveAspectRatio="xMidYMid meet">

<g transform="translate(0.000000,1024.000000) scale(0.100000,-0.100000)"
fill="#000000" stroke="none">
<path d="M5455 8840 c-108 -25 -240 -67 -295 -95 -81 -41 -78 -32 -68 -270 5
-115 11 -211 13 -213 2 -2 16 5 32 16 89 63 206 105 353 127 229 35 450 -2
744 -124 276 -115 366 -136 596 -136 170 0 177 1 261 31 119 43 213 97 283
166 80 78 69 91 -46 52 -74 -26 -95 -29 -193 -27 -60 2 -139 8 -175 15 l-65
13 55 31 c162 92 420 337 388 369 -3 3 -56 -19 -119 -49 -215 -102 -373 -135
-561 -117 -154 15 -242 39 -558 150 -231 81 -462 103 -645 61z"/>
<path d="M4700 8395 c-488 -72 -999 -290 -1360 -580 -397 -319 -708 -746 -853
-1170 -87 -254 -153 -620 -132 -735 12 -65 94 -248 161 -360 36 -61 68 -109
71 -106 2 2 -1 55 -7 117 -42 413 -16 680 100 1029 169 506 630 1039 1140
1317 293 160 627 265 953 300 l157 17 0 93 0 93 -72 -1 c-40 -1 -111 -7 -158
-14z"/>
<path d="M5526 8279 c-100 -15 -235 -54 -225 -64 3 -2 45 -9 94 -15 182 -22
512 -123 715 -218 255 -119 502 -293 705 -497 219 -219 359 -413 490 -680 186
-378 256 -738 226 -1159 -7 -87 -10 -160 -8 -163 8 -7 87 124 136 227 89 187
93 219 50 498 -82 532 -376 1070 -805 1469 -140 130 -209 185 -347 277 -140
93 -232 142 -393 212 -202 87 -316 117 -459 120 -66 1 -147 -1 -179 -7z"/>
<path d="M4865 8083 c-115 -11 -358 -58 -476 -92 -287 -84 -585 -232 -814
-405 -113 -85 -336 -311 -438 -443 l-87 -113 78 0 c92 0 151 -24 221 -91 111
-107 121 -292 26 -449 -35 -57 -84 -110 -122 -129 -22 -11 -21 -12 21 -55 40
-39 80 -112 138 -245 17 -41 19 -43 37 -27 10 9 31 40 46 69 46 85 132 193
165 207 16 7 30 14 30 17 0 2 -15 19 -34 38 -19 18 -47 60 -62 92 -27 53 -29
67 -29 168 0 136 20 205 85 289 25 34 71 78 105 100 38 26 79 65 112 111 84
112 257 300 355 383 50 42 131 113 182 157 277 245 333 291 342 282 9 -8 -55
-184 -96 -268 -21 -41 -58 -122 -83 -180 -25 -57 -67 -151 -95 -209 -69 -146
-90 -251 -101 -485 -11 -241 -35 -318 -125 -405 l-36 -34 59 -61 c55 -55 162
-211 176 -256 4 -10 10 -19 15 -19 4 0 37 40 73 89 37 48 91 111 121 139 l55
50 -33 35 c-36 39 -89 160 -107 247 -37 175 29 394 223 750 56 103 125 289
144 388 14 75 19 274 8 331 -4 20 -12 30 -23 29 -9 -1 -34 -3 -56 -5z"/>
<path d="M5131 8071 c-24 -18 -24 -20 -18 -137 12 -205 50 -325 205 -644 49
-102 111 -239 138 -305 l49 -120 0 -155 c0 -151 -1 -157 -33 -235 -17 -44 -48
-100 -67 -124 -19 -24 -35 -47 -35 -50 0 -4 28 -33 61 -66 34 -33 84 -91 111
-130 27 -38 54 -70 60 -70 6 0 38 49 72 109 35 63 85 134 118 170 l58 60 -40
41 c-21 22 -51 67 -66 100 -27 57 -28 70 -35 275 -5 134 -14 238 -23 276 -36
145 -136 396 -223 559 -29 56 -125 297 -119 302 6 7 103 -63 197 -143 52 -44
139 -115 194 -159 221 -177 521 -503 508 -554 -3 -13 12 -28 61 -60 75 -49
135 -111 165 -170 28 -53 51 -153 51 -218 0 -84 -53 -206 -114 -262 -34 -32
-33 -46 4 -61 43 -18 124 -110 177 -202 25 -43 48 -78 52 -78 3 0 33 53 65
117 39 77 74 132 103 159 l43 43 -43 30 c-49 33 -119 119 -141 173 -25 60 -36
152 -25 219 18 112 80 199 176 245 45 22 70 27 134 28 43 1 79 2 79 4 0 2 -33
47 -72 100 -326 431 -819 750 -1357 878 -156 37 -243 53 -329 59 -42 4 -86 8
-97 10 -11 2 -31 -4 -44 -14z"/>
<path d="M7056 7931 c-23 -24 -27 -36 -24 -72 3 -37 8 -47 37 -66 47 -32 86
-30 122 6 33 33 37 67 14 111 -30 59 -103 69 -149 21z"/>
<path d="M2885 7925 c-19 -18 -25 -35 -25 -70 0 -62 24 -85 89 -85 42 0 53 4
70 26 13 16 21 41 21 64 0 58 -31 90 -86 90 -34 0 -51 -6 -69 -25z"/>
<path d="M2655 7715 c-33 -32 -35 -105 -5 -135 47 -47 93 -45 140 4 79 85 -53
214 -135 131z"/>
<path d="M7280 7708 c-29 -48 -27 -111 5 -137 38 -29 78 -35 114 -17 38 20 51
44 51 94 0 58 -37 92 -102 92 -44 0 -50 -3 -68 -32z"/>
<path d="M2443 7414 c-61 -30 -67 -112 -11 -159 40 -34 82 -33 119 4 51 51 33
137 -33 160 -39 14 -36 14 -75 -5z"/>
<path d="M7539 7391 c-62 -62 -20 -161 68 -161 81 0 126 110 67 165 -39 36
-96 34 -135 -4z"/>
<path d="M2298 7083 c-75 -79 -127 -176 -186 -345 -66 -185 -107 -542 -84
-721 13 -104 51 -257 88 -356 36 -96 210 -402 276 -486 82 -105 309 -334 464
-469 265 -232 408 -333 674 -480 42 -23 109 -65 150 -92 41 -28 98 -64 125
-79 50 -27 113 -73 298 -213 114 -86 255 -182 267 -182 5 0 0 21 -12 48 -84
194 -380 424 -914 710 -182 97 -364 219 -364 243 0 4 35 -12 78 -35 42 -24
214 -114 382 -201 168 -87 337 -179 377 -204 136 -87 278 -195 337 -255 67
-70 241 -290 309 -392 145 -220 252 -542 282 -851 l7 -73 33 0 c18 0 47 3 65
6 l32 7 -5 211 c-4 187 -8 223 -32 314 -35 137 -80 246 -155 378 -75 132 -112
184 -212 302 -194 227 -501 439 -964 663 -293 142 -568 297 -699 393 -44 33
-143 123 -221 200 -162 163 -259 298 -349 490 -68 144 -97 229 -125 366 -20
93 -21 126 -17 285 9 279 33 415 133 753 33 111 23 129 -38 65z"/>
<path d="M7730 7094 c0 -9 13 -62 29 -118 115 -404 125 -466 125 -756 0 -259
-6 -296 -81 -474 -104 -247 -282 -504 -466 -674 -210 -194 -359 -285 -907
-556 -173 -85 -362 -185 -420 -222 -443 -278 -724 -615 -864 -1034 -46 -139
-64 -302 -58 -527 l2 -73 53 0 c28 0 58 4 65 8 7 5 18 59 27 133 39 319 117
549 255 755 152 225 266 356 430 498 147 127 276 205 639 388 185 94 382 194
439 225 240 128 22 -16 -298 -198 -124 -70 -250 -142 -280 -160 -30 -17 -102
-59 -160 -92 -149 -86 -362 -258 -467 -379 -48 -55 -94 -148 -73 -148 27 0 78
31 185 111 182 136 315 228 370 256 27 14 67 40 88 57 22 17 74 49 118 71 85
43 257 156 497 328 386 275 755 696 952 1087 114 225 157 564 111 878 -29 204
-81 347 -183 509 -38 60 -99 123 -118 123 -6 0 -10 -7 -10 -16z"/>
<path d="M4957 6970 c-87 -22 -169 -87 -210 -165 -30 -59 -36 -196 -11 -267
41 -115 150 -181 304 -182 75 0 93 3 151 31 107 50 163 144 163 273 0 92 -30
164 -94 227 -70 70 -206 107 -303 83z m192 -120 c70 -35 116 -123 93 -175 -16
-34 -27 -31 -58 15 -39 58 -100 85 -197 85 -72 0 -77 1 -77 22 0 11 14 33 31
47 26 23 40 26 100 26 50 0 81 -6 108 -20z"/>
<path d="M3886 6925 c-154 -55 -239 -263 -165 -407 37 -72 109 -110 207 -110
119 1 227 79 272 198 48 129 -5 270 -122 318 -46 19 -140 20 -192 1z m180
-106 c14 -13 30 -32 36 -43 12 -22 2 -86 -14 -86 -5 0 -27 19 -47 42 -36 40
-41 42 -104 46 -65 4 -66 5 -52 25 24 35 56 48 108 44 33 -3 56 -12 73 -28z"/>
<path d="M5971 6918 c-47 -23 -93 -79 -112 -135 -6 -21 -9 -66 -7 -107 11
-163 118 -266 279 -266 110 0 182 43 225 135 48 102 20 219 -75 316 -63 65
-99 79 -201 79 -47 0 -77 -6 -109 -22z m209 -86 c42 -21 80 -75 80 -113 0 -38
-20 -37 -49 2 -34 46 -83 63 -158 55 -72 -8 -78 0 -34 45 24 24 38 29 78 29
26 0 64 -8 83 -18z"/>
<path d="M3065 6886 c-127 -41 -178 -93 -226 -235 -27 -78 -25 -120 10 -168
42 -58 88 -77 173 -71 59 5 77 11 122 42 92 63 137 144 144 256 3 66 1 79 -20
109 -43 64 -127 92 -203 67z m104 -102 c17 -14 31 -33 31 -42 0 -20 -36 -82
-48 -82 -5 0 -16 16 -25 35 -20 43 -54 53 -108 32 -43 -17 -47 -13 -23 22 44
62 122 78 173 35z"/>
<path d="M6873 6875 c-19 -8 -45 -34 -64 -62 -28 -45 -30 -53 -27 -123 4 -90
25 -138 85 -197 65 -63 124 -88 208 -88 83 0 131 24 172 86 33 50 29 108 -15
200 -62 130 -155 199 -266 199 -34 -1 -76 -7 -93 -15z m160 -79 c50 -20 97
-80 97 -122 l0 -36 -37 32 c-50 44 -99 63 -146 57 -38 -5 -38 -5 -35 26 5 51
58 70 121 43z"/>
<path d="M2732 6347 c-34 -152 -44 -457 -23 -659 16 -145 70 -387 112 -498 8
-21 113 -140 123 -140 2 0 6 33 10 73 4 39 13 106 19 147 l12 75 80 -123 c211
-325 258 -393 278 -408 46 -32 130 -85 132 -82 2 2 -24 68 -56 148 -101 247
-159 408 -210 585 -43 147 -89 356 -89 404 0 12 75 -92 248 -344 19 -27 53
-70 76 -95 23 -25 63 -73 90 -107 27 -35 55 -63 62 -63 28 0 10 154 -28 242
l-20 46 72 119 c87 143 98 159 107 149 16 -16 8 -328 -10 -436 -38 -219 -96
-587 -101 -642 l-6 -57 44 -30 c24 -17 49 -31 55 -33 8 -2 25 38 46 102 45
143 88 248 145 357 l49 92 49 -67 c26 -37 80 -114 118 -170 38 -57 76 -108 84
-112 8 -4 41 -13 72 -19 31 -5 72 -17 92 -25 21 -9 36 -11 36 -5 0 6 -23 66
-50 134 -78 191 -100 259 -87 264 24 8 54 43 117 140 36 55 67 100 70 100 3 0
38 -42 79 -93 41 -52 83 -99 92 -105 43 -26 33 119 -20 289 l-29 95 107 108
c59 59 113 107 120 107 30 0 -19 -325 -114 -760 -30 -133 -64 -274 -81 -331
-3 -13 7 -21 41 -33 26 -8 68 -31 94 -51 27 -19 51 -35 53 -35 3 0 10 18 17
41 28 93 116 283 170 368 l58 91 51 -83 c56 -91 136 -251 172 -340 12 -31 26
-60 31 -63 5 -3 39 13 76 35 38 21 78 42 91 46 12 3 22 10 22 14 0 4 -20 76
-45 159 -24 84 -60 228 -79 320 -19 92 -45 205 -56 252 -14 56 -23 133 -27
225 l-6 140 54 -49 c59 -52 116 -113 155 -163 25 -31 25 -32 8 -65 -22 -42
-65 -191 -71 -243 -3 -26 1 -47 11 -60 14 -19 16 -18 66 35 29 30 66 74 83 98
29 40 31 41 49 25 11 -10 40 -47 65 -83 26 -36 64 -86 85 -111 21 -26 38 -54
38 -62 0 -9 -28 -90 -62 -182 -33 -91 -59 -167 -57 -169 2 -2 48 6 102 17 l98
21 56 90 c31 50 80 124 110 164 30 40 57 80 60 88 3 8 9 14 13 14 17 0 154
-323 195 -460 16 -52 29 -96 30 -98 1 -1 27 11 57 26 30 16 60 31 66 33 8 3 6
32 -9 99 -33 155 -38 185 -70 400 -54 365 -69 560 -50 630 6 23 10 20 52 -45
25 -39 58 -92 73 -120 16 -27 36 -58 44 -68 14 -16 14 -23 -1 -70 -18 -58 -37
-159 -37 -194 0 -37 21 -27 86 40 67 68 159 192 247 332 59 93 146 209 152
203 4 -4 -35 -206 -59 -308 -19 -80 -141 -433 -191 -555 -75 -182 -113 -285
-105 -285 5 0 12 5 15 10 4 6 32 23 63 39 31 16 64 37 73 47 9 11 58 85 108
167 50 81 118 188 151 237 32 50 62 99 65 110 14 44 23 4 30 -130 4 -77 9
-140 11 -140 12 0 142 114 152 132 19 36 78 294 93 398 20 148 17 542 -5 665
-10 55 -22 104 -26 109 -5 5 -25 -5 -46 -23 -54 -48 -116 -71 -233 -86 -77
-10 -113 -20 -141 -39 -42 -27 -96 -105 -140 -198 -30 -64 -136 -267 -144
-275 -2 -3 -28 42 -56 99 -79 157 -172 291 -235 339 -141 106 -338 119 -447
29 -49 -41 -131 -159 -208 -300 -34 -63 -65 -118 -69 -123 -4 -4 -23 16 -41
45 -54 82 -216 273 -258 301 -208 144 -471 112 -658 -79 -39 -40 -97 -114
-129 -166 -32 -51 -61 -97 -65 -101 -4 -5 -22 18 -40 50 -69 123 -221 342
-262 377 -92 79 -229 84 -371 14 -69 -35 -86 -50 -142 -120 -43 -55 -85 -126
-131 -224 -38 -79 -71 -144 -74 -144 -3 0 -15 19 -27 43 -55 113 -228 406
-258 437 -34 34 -35 34 -147 40 -128 7 -155 18 -228 86 l-47 44 -11 -53z
m1506 -647 c41 -52 79 -97 84 -101 8 -5 -14 -90 -58 -224 -15 -44 -29 -87 -32
-95 -2 -8 -10 5 -18 30 -59 186 -95 323 -109 416 -9 60 -18 120 -20 134 -5 22
0 19 36 -20 22 -25 75 -88 117 -140z m1723 -6 c-31 -180 -52 -270 -94 -400
l-22 -71 -23 105 c-13 58 -39 148 -59 200 -28 76 -33 97 -22 100 8 3 30 23 49
45 44 52 194 204 198 201 1 -1 -11 -82 -27 -180z"/>
<path d="M8206 5986 c-7 -28 -18 -83 -24 -122 -14 -89 -72 -264 -117 -353 -20
-41 -64 -100 -107 -147 -41 -43 -109 -128 -152 -189 -88 -123 -151 -198 -276
-329 -137 -143 -443 -382 -575 -448 -85 -43 -90 -48 -64 -66 21 -14 47 -17
404 -45 140 -11 178 -11 215 0 173 50 518 470 645 786 44 109 79 228 111 382
34 158 47 519 21 558 -10 16 -25 25 -41 25 -23 0 -28 -7 -40 -52z m-100 -641
c-17 -62 -52 -151 -75 -190 -10 -16 -35 -61 -56 -100 -60 -112 -112 -172 -98
-112 8 33 -9 11 -43 -53 -16 -30 -35 -59 -41 -63 -7 -4 -13 -15 -13 -22 0 -8
-7 -15 -15 -15 -9 0 -19 -10 -24 -23 -5 -13 -25 -35 -44 -50 -19 -14 -48 -39
-64 -54 -16 -15 -36 -32 -45 -38 -9 -5 -51 -37 -95 -70 -107 -83 -217 -150
-281 -170 -29 -10 -55 -15 -58 -13 -2 3 71 62 163 131 187 140 351 289 452
411 109 132 205 265 261 361 51 88 80 128 86 122 2 -2 -3 -25 -10 -52z m-258
-477 c-2 -6 -10 -14 -16 -16 -7 -2 -10 2 -6 12 7 18 28 22 22 4z"/>
<path d="M1790 5822 c0 -409 74 -689 268 -1022 69 -118 114 -180 215 -296 91
-105 146 -150 237 -193 77 -37 94 -37 305 -11 88 11 200 24 249 30 49 6 93 13
98 16 15 10 -12 33 -81 71 -114 63 -211 132 -371 263 -220 181 -321 292 -530
580 -152 210 -207 322 -260 530 -12 47 -31 100 -42 117 -17 29 -67 73 -82 73
-3 0 -6 -71 -6 -158z m246 -554 c61 -102 160 -242 231 -325 157 -186 247 -268
492 -452 185 -138 194 -146 163 -149 -32 -3 -140 47 -186 87 -10 9 -19 14 -21
11 -3 -7 -50 29 -164 127 -66 56 -98 78 -104 70 -6 -8 -7 -6 -4 4 6 18 -50 79
-71 79 -7 0 -12 6 -12 13 0 8 -9 22 -21 33 -58 52 -202 258 -274 389 -34 64
-79 175 -70 175 2 0 20 -28 41 -62z m148 -344 c9 -3 13 -10 10 -15 -3 -5 0 -9
7 -9 7 0 9 -3 6 -6 -3 -4 -2 -15 4 -25 7 -14 6 -17 -4 -13 -12 4 -21 18 -45
67 -4 9 1 9 22 1z m233 -269 c0 -8 -4 -15 -9 -15 -10 0 -11 14 -1 23 9 10 10
9 10 -8z"/>
<path d="M3447 5213 c-21 -37 -16 -71 24 -179 23 -63 45 -114 49 -114 7 0 30
145 30 190 0 19 -8 28 -30 37 -16 6 -38 25 -48 43 -11 17 -22 28 -25 23z"/>
<path d="M6594 5182 c-22 -20 -48 -41 -57 -47 -15 -9 -15 -15 -2 -70 8 -33 15
-75 15 -92 0 -41 15 -42 35 -3 17 32 65 205 65 233 0 25 -10 21 -56 -21z"/>
<path d="M4424 5149 l-28 -40 44 -127 c68 -199 68 -199 99 -44 11 56 25 111
30 121 9 15 0 27 -53 74 l-64 56 -28 -40z"/>
<path d="M5546 5140 l-48 -48 15 -48 c9 -27 24 -83 33 -124 26 -120 24 -122
90 97 l27 93 -28 40 c-15 22 -30 40 -34 39 -3 0 -28 -22 -55 -49z"/>
<path d="M3056 5003 c-5 -12 0 -24 14 -35 33 -27 41 -22 26 14 -16 38 -31 46
-40 21z"/>
<path d="M3950 4898 c-11 -18 -20 -36 -20 -39 0 -9 90 -22 97 -15 6 6 -43 86
-52 86 -3 0 -14 -15 -25 -32z"/>
<path d="M6067 4878 c-15 -23 -26 -42 -24 -43 1 -1 23 0 50 3 32 3 47 9 47 18
0 17 -29 64 -39 64 -4 0 -19 -19 -34 -42z"/>
<path d="M1639 4824 c-29 -75 43 -370 136 -554 105 -208 278 -350 467 -381 70
-12 364 -5 492 12 75 10 337 96 359 118 14 14 -73 24 -151 17 -368 -33 -590
-11 -766 75 -44 21 -82 37 -85 35 -3 -2 -30 21 -60 51 l-54 54 64 -34 c96 -52
234 -104 329 -123 212 -43 969 -3 1082 57 36 19 19 38 -61 64 -60 20 -200 22
-331 6 -132 -17 -472 -23 -542 -11 -226 41 -536 195 -661 328 -45 48 -113 158
-146 234 -10 24 -28 51 -39 62 -21 18 -22 18 -33 -10z"/>
<path d="M5018 4802 c-68 -153 -108 -246 -108 -256 0 -7 32 -38 70 -69 60 -49
73 -56 90 -47 11 6 20 14 20 18 0 4 23 25 51 45 l50 38 -35 63 c-19 35 -51
103 -71 150 -21 48 -40 88 -44 90 -3 2 -14 -12 -23 -32z"/>
<path d="M8364 4802 c-11 -15 -40 -64 -64 -109 -83 -156 -155 -230 -318 -321
-93 -52 -319 -141 -412 -162 -81 -18 -516 -8 -635 15 -124 24 -231 17 -308
-18 -35 -16 -57 -32 -55 -39 7 -19 81 -37 203 -49 60 -5 157 -17 214 -25 147
-22 443 -29 567 -15 189 22 408 92 510 162 25 17 48 28 52 25 10 -11 -81 -96
-103 -96 -14 0 -16 -3 -7 -9 15 -9 -11 -23 -108 -60 -30 -12 -64 -25 -75 -30
-143 -63 -373 -77 -663 -41 -101 12 -186 20 -189 16 -11 -11 31 -48 77 -68 82
-35 153 -56 285 -83 118 -24 145 -26 300 -22 152 4 179 7 250 31 235 80 369
236 475 554 55 162 73 289 51 345 -13 33 -20 33 -47 -1z"/>
<path d="M3878 4725 c-4 -5 -11 -30 -14 -57 -4 -31 -15 -57 -28 -70 l-21 -20
28 -22 c15 -12 60 -39 100 -60 330 -175 550 -338 718 -530 136 -154 235 -319
348 -580 27 -63 33 -57 91 84 79 195 148 314 262 452 171 208 440 404 831 608
39 20 47 29 42 45 -3 11 -9 45 -13 75 -12 85 -10 83 -126 76 -187 -13 -404
-66 -575 -140 -182 -79 -308 -168 -411 -289 l-65 -77 -25 32 c-129 164 -346
308 -586 388 -166 55 -532 111 -556 85z m296 -150 c272 -63 402 -112 551 -210
83 -54 192 -169 261 -275 32 -50 61 -90 64 -90 3 0 14 19 25 41 20 43 121 166
194 237 129 126 375 251 574 291 103 21 197 31 197 22 0 -4 -33 -19 -72 -35
-88 -34 -255 -133 -396 -234 -74 -53 -108 -72 -120 -67 -14 7 -13 9 8 15 14 5
19 8 11 9 -15 1 36 55 60 63 8 3 12 8 8 11 -6 7 -73 -39 -155 -108 -71 -60
-78 -69 -59 -73 8 -2 15 -8 15 -14 0 -5 8 -7 17 -4 15 6 14 4 -2 -14 -13 -14
-21 -17 -26 -9 -4 7 -9 3 -14 -11 -8 -24 -121 -172 -136 -178 -11 -4 -31 36
-24 48 13 21 -12 9 -37 -17 -52 -56 -62 -112 -18 -100 29 8 26 -20 -11 -89
-17 -32 -37 -77 -44 -99 l-12 -40 -8 28 c-6 22 -3 31 11 42 11 8 15 15 10 15
-4 0 -1 11 7 24 18 27 13 126 -7 126 -6 0 -28 25 -50 56 -21 30 -44 58 -52 61
-8 3 -12 9 -9 13 3 5 1 11 -4 14 -10 7 -9 -13 2 -30 5 -9 -2 -10 -26 -4 -62
14 -157 78 -157 106 0 7 -9 18 -21 24 -12 7 -18 18 -15 26 3 9 1 12 -4 9 -6
-4 -10 5 -10 21 0 21 -4 25 -20 21 -11 -3 -18 -2 -16 2 9 14 -24 43 -44 38
-13 -3 -20 0 -20 9 0 8 7 14 16 14 8 0 12 5 9 10 -3 6 1 10 9 10 25 0 19 16
-19 44 -19 15 -35 22 -35 17 0 -6 -4 -11 -10 -11 -5 0 -7 6 -4 14 4 11 -53 56
-72 56 -12 0 26 -30 38 -30 7 -1 2 -7 -12 -14 -14 -8 -29 -12 -35 -8 -5 3 -2
-4 8 -15 29 -34 19 -39 -15 -7 -64 59 -115 92 -270 173 -87 45 -158 87 -158
92 0 12 -2 12 124 -16z m371 -286 c-4 -5 2 -9 12 -10 11 0 13 -3 5 -6 -16 -6
-44 16 -36 28 3 5 10 7 15 3 5 -3 7 -10 4 -15z m414 -469 c11 -24 11 -24 -3
-6 -9 11 -16 24 -16 30 0 12 5 7 19 -24z"/>
<path d="M5708 4454 c-27 -13 -48 -26 -48 -28 0 -10 62 14 86 33 35 28 20 26
-38 -5z"/>
<path d="M5260 4130 c0 -5 7 -10 15 -10 8 0 15 -6 15 -12 0 -9 3 -8 10 2 6 9
5 17 -3 22 -17 11 -37 10 -37 -2z"/>
<path d="M5160 4025 c-8 -9 -8 -15 -2 -15 12 0 26 19 19 26 -2 2 -10 -2 -17
-11z"/>
<path d="M6392 4085 c-23 -7 -50 -19 -58 -26 -14 -11 -4 -15 62 -26 53 -9 107
-27 164 -55 76 -37 82 -43 60 -49 -14 -4 -48 -7 -77 -8 -90 -2 -205 -22 -303
-53 -228 -71 -545 -300 -670 -483 -50 -72 -124 -229 -155 -326 -28 -90 -81
-377 -70 -387 11 -11 308 40 463 80 206 52 361 108 519 184 252 123 441 251
628 426 112 104 286 284 301 310 9 16 18 17 102 7 103 -11 295 2 362 25 22 7
63 29 92 47 l53 34 -220 6 c-321 9 -436 37 -705 173 -129 65 -201 89 -349 116
-132 23 -141 23 -199 5z m633 -292 c121 -38 154 -58 114 -67 -13 -3 -118 -7
-234 -9 l-210 -3 -92 -37 c-51 -20 -97 -37 -103 -37 -26 0 -5 22 48 50 51 27
53 30 22 24 -234 -41 -541 -201 -689 -360 -125 -134 -260 -356 -228 -376 9 -5
9 -10 -1 -20 -6 -6 -12 -25 -12 -40 0 -15 -4 -28 -9 -28 -5 0 -13 -9 -16 -20
-6 -19 -73 -56 -83 -46 -2 3 12 68 31 145 83 331 266 559 579 719 116 60 261
100 448 126 63 9 129 18 145 20 68 9 183 -7 290 -41z m-45 -198 c0 -13 -112
-74 -127 -69 -14 5 -15 4 -4 -4 8 -6 9 -12 3 -16 -5 -3 -12 1 -16 9 -4 11 -27
4 -113 -38 -223 -108 -301 -155 -504 -300 -128 -91 -159 -121 -184 -172 -18
-37 -115 -84 -115 -56 0 11 79 128 129 192 49 62 161 160 251 220 178 119 429
217 564 220 41 1 97 10 114 18 1 0 2 -1 2 -4z m-1281 -539 c-26 -38 -38 -42
-17 -5 17 31 32 48 37 43 2 -2 -7 -19 -20 -38z m78 -8 c-13 -18 -27 -41 -30
-51 -4 -9 -10 -17 -14 -16 -20 3 -27 -2 -13 -11 12 -8 11 -10 -6 -10 -13 0
-24 8 -27 20 -4 15 0 20 15 20 19 0 48 21 48 36 0 10 33 43 43 43 4 1 -3 -14
-16 -31z m-73 -128 c-10 -16 -20 -28 -22 -26 -4 5 28 56 35 56 2 0 -4 -13 -13
-30z"/>
<path d="M6865 3550 c-3 -6 1 -7 9 -4 18 7 21 14 7 14 -6 0 -13 -4 -16 -10z"/>
<path d="M3485 4083 c-117 -18 -208 -50 -440 -155 -242 -110 -324 -128 -600
-128 -104 0 -200 -3 -212 -6 -32 -9 -29 -37 6 -67 47 -39 182 -61 386 -62 117
0 177 -4 192 -13 13 -7 103 -90 200 -183 256 -246 447 -385 706 -513 309 -153
482 -211 742 -252 55 -8 138 -21 185 -29 47 -7 86 -12 88 -10 9 8 -52 293 -83
388 -84 260 -239 468 -460 616 -283 191 -480 260 -740 261 -74 0 -111 13 -87
29 8 4 79 26 158 47 79 21 144 41 144 44 0 22 -120 44 -185 33z m-53 -266
c317 -43 455 -90 638 -218 91 -63 233 -205 291 -290 80 -118 170 -346 184
-466 7 -58 7 -58 -11 -33 -34 47 -36 47 -84 37 -25 -5 -48 -14 -51 -20 -9 -14
-29 21 -79 136 -26 59 -66 129 -101 174 -55 72 -235 263 -248 263 -11 0 -71
57 -66 62 3 3 -5 13 -17 24 l-23 19 19 -22 c30 -35 10 -28 -78 31 -92 61 -183
105 -306 147 -137 48 -186 57 -360 69 -175 12 -210 17 -210 31 0 15 39 30 143
54 114 27 168 27 359 2z m-225 -228 c253 -36 546 -189 743 -388 96 -97 210
-251 187 -251 -27 0 -116 52 -122 71 -4 10 -11 19 -16 19 -5 0 -9 9 -9 19 0
27 -160 154 -336 266 -84 54 -256 137 -271 131 -8 -3 -11 -1 -8 4 3 5 -20 23
-52 40 -32 17 -78 42 -102 55 -24 14 -59 25 -77 25 -18 0 -36 5 -39 10 -8 13
6 13 102 -1z"/>
<path d="M3690 3674 c0 -7 52 -25 57 -20 2 2 -10 8 -26 14 -17 6 -31 9 -31 6z"/>
<path d="M3845 3603 c6 -6 28 -20 50 -32 22 -13 31 -15 20 -6 -22 18 -86 53
-70 38z"/>
<path d="M3995 3506 c31 -26 51 -34 40 -16 -3 6 -21 17 -38 26 l-32 16 30 -26z"/>
<path d="M7499 3303 c-57 -49 -118 -99 -134 -111 l-30 -24 30 -24 c16 -13 42
-29 57 -35 25 -10 30 -8 63 27 l36 37 42 -74 c76 -131 160 -270 166 -274 11
-6 111 65 111 79 0 8 -31 57 -69 109 -38 53 -88 123 -111 157 l-42 62 31 28
c17 16 31 33 31 37 0 22 -53 92 -70 93 -3 0 -53 -39 -111 -87z"/>
<path d="M2248 3318 c-18 -14 -38 -58 -38 -84 0 -9 13 -29 29 -45 40 -40 81
-39 115 2 32 38 32 56 3 100 -17 26 -31 35 -57 37 -19 2 -43 -3 -52 -10z"/>
<path d="M2593 3233 c-27 -32 -71 -89 -98 -128 -27 -38 -78 -107 -112 -153
-35 -46 -61 -87 -58 -92 12 -20 176 -122 220 -136 43 -15 50 -15 91 1 25 9 58
28 75 43 30 24 30 27 24 84 l-7 58 29 0 c44 0 103 70 103 122 0 66 -20 96
-115 177 -52 45 -96 81 -99 81 -2 0 -26 -26 -53 -57z m143 -175 c13 -25 13
-29 -6 -48 l-20 -20 -45 28 c-51 30 -55 49 -23 92 l22 30 29 -27 c16 -16 35
-40 43 -55z m-145 -119 c40 -31 47 -55 29 -90 -15 -28 -32 -24 -79 19 l-42 37
21 33 c11 17 22 32 26 32 3 0 24 -14 45 -31z"/>
<path d="M7260 3111 c-30 -21 -83 -53 -117 -71 -35 -17 -63 -37 -63 -42 0 -5
8 -22 19 -36 10 -15 38 -65 61 -112 23 -47 55 -103 70 -125 15 -22 40 -70 57
-107 l29 -67 70 38 c39 21 90 52 113 69 23 17 55 34 72 37 33 7 35 20 14 72
-27 64 -31 66 -83 29 -97 -69 -134 -77 -148 -33 -5 15 0 26 17 39 89 68 100
80 93 101 -3 12 -14 30 -23 40 -16 16 -20 15 -83 -23 -37 -22 -69 -40 -72 -40
-3 0 -16 19 -30 42 l-25 42 57 32 c31 18 68 44 81 58 l25 26 -34 35 c-19 19
-36 35 -39 35 -4 0 -31 -17 -61 -39z"/>
<path d="M2884 2947 c-97 -141 -204 -321 -204 -345 0 -15 11 -23 45 -32 25 -7
50 -20 55 -29 8 -13 9 -14 10 -1 0 8 21 51 46 95 25 44 69 121 96 170 28 50
65 108 83 130 l32 40 -42 38 c-24 20 -45 37 -47 37 -2 0 -35 -46 -74 -103z"/>
<path d="M6993 2955 c-38 -23 -42 -29 -48 -78 -8 -73 -25 -148 -39 -175 -12
-22 -14 -19 -49 55 -20 44 -37 84 -37 91 0 7 -5 12 -10 12 -13 0 -110 -49
-110 -55 0 -2 40 -84 88 -182 48 -98 98 -202 110 -230 13 -29 26 -53 31 -53
14 0 100 40 106 49 6 10 -22 76 -56 133 -13 21 -19 41 -15 45 9 9 84 -30 142
-74 34 -26 47 -31 61 -24 10 5 30 12 44 15 14 3 38 15 53 27 25 20 26 23 11
39 -8 9 -32 22 -53 28 -20 6 -74 34 -119 62 -60 37 -83 57 -83 71 0 12 9 57
21 101 20 81 22 159 4 165 -5 1 -29 -8 -52 -22z"/>
<path d="M3022 2847 c-34 -63 -62 -118 -62 -124 0 -5 -23 -47 -51 -94 -28 -46
-53 -98 -56 -115 -6 -35 -3 -37 68 -49 35 -6 36 -5 70 52 50 85 89 84 89 -3 0
-23 3 -62 6 -87 7 -45 8 -47 61 -67 29 -11 57 -20 62 -20 4 0 2 33 -5 73 -26
160 -27 147 9 147 64 0 129 63 143 138 8 40 -17 110 -49 140 -23 21 -199 122
-214 122 -5 0 -37 -51 -71 -113z m182 -77 c32 -35 35 -43 25 -67 -6 -15 -16
-31 -22 -35 -21 -13 -61 -8 -94 12 l-32 19 26 48 c14 26 27 51 30 56 10 16 32
5 67 -33z"/>
<path d="M3445 2783 c-11 -46 -143 -334 -180 -394 -36 -58 -38 -79 -9 -79 8 0
46 -16 84 -35 75 -38 179 -79 184 -73 4 3 46 99 46 103 0 1 -30 15 -67 30 -79
33 -93 42 -93 62 0 8 32 89 72 180 l71 164 -24 17 c-13 9 -35 25 -50 34 -27
16 -27 16 -34 -9z"/>
<path d="M6644 2792 c-20 -17 -191 -85 -226 -90 -43 -5 -43 -5 -26 -35 7 -12
33 -83 58 -157 63 -184 108 -302 117 -311 4 -4 72 18 150 49 102 41 143 62
143 73 0 24 -29 89 -40 89 -5 0 -45 -16 -89 -35 -43 -19 -84 -35 -89 -35 -10
0 -32 52 -32 75 0 7 26 22 58 34 83 31 83 30 70 79 -12 49 -20 51 -103 22 -73
-25 -74 -25 -85 5 -27 70 -26 72 31 89 29 9 62 16 73 16 41 0 49 13 36 61 -14
52 -33 81 -46 71z"/>
<path d="M3690 2513 c-29 -87 -69 -189 -87 -228 -18 -38 -33 -75 -33 -81 0
-10 70 -46 108 -56 9 -2 33 55 77 182 34 102 72 212 84 244 12 33 21 62 21 66
0 6 -88 30 -109 30 -3 0 -31 -71 -61 -157z"/>
<path d="M3897 2596 c-6 -42 -38 -154 -101 -355 -19 -63 -34 -115 -33 -115 1
-1 30 -11 64 -23 l63 -22 6 27 c25 123 42 162 68 162 11 0 57 -85 107 -200 15
-32 20 -35 82 -45 41 -7 67 -7 67 -2 0 6 -20 54 -44 107 -25 53 -53 117 -62
141 -9 24 -21 49 -26 55 -14 19 1 40 75 105 40 34 83 72 96 83 l23 21 -7 -45
c-4 -25 -8 -49 -9 -55 0 -5 24 -12 54 -15 l54 -5 -2 -50 c-1 -27 -8 -111 -14
-185 -18 -208 -21 -192 32 -197 25 -2 52 -5 61 -7 14 -3 18 22 28 188 7 105
13 200 14 211 2 17 8 19 42 16 95 -10 90 -12 90 49 l0 55 -145 17 c-80 10
-186 28 -237 41 l-92 23 -87 -84 c-47 -45 -88 -81 -90 -79 -2 2 7 39 21 83 31
98 32 114 3 114 -13 1 -39 7 -59 14 l-37 13 -5 -41z"/>
<path d="M6105 2612 c-49 -14 -91 -26 -92 -27 -4 -2 106 -501 112 -512 2 -3
117 18 122 22 2 1 -7 39 -18 85 -17 68 -19 84 -8 91 23 15 57 10 71 -9 7 -10
36 -45 65 -77 39 -43 55 -56 65 -48 7 6 31 16 53 23 58 18 61 25 22 55 -20 14
-56 51 -81 82 l-46 55 26 31 c23 27 26 37 20 80 -7 61 -47 132 -89 158 -44 26
-111 23 -222 -9z m174 -108 c12 -15 21 -40 21 -56 0 -24 -7 -32 -42 -48 -75
-34 -89 -24 -104 70 -6 37 -5 39 27 49 56 16 76 12 98 -15z"/>
<path d="M5749 2533 c-28 -4 -22 15 -85 -283 -48 -229 -54 -263 -52 -265 2 -1
31 0 66 3 62 4 62 5 62 36 0 66 5 70 91 86 l81 16 24 -41 c13 -23 24 -46 24
-51 0 -6 29 -1 65 10 36 12 65 24 65 28 0 5 -31 59 -68 120 -78 129 -178 305
-188 331 -6 17 -26 19 -85 10z m92 -244 c16 -34 28 -63 25 -66 -8 -8 -88 -24
-94 -19 -5 5 17 123 25 139 8 13 13 7 44 -54z"/>
<path d="M5481 2497 l-53 -9 7 -97 7 -98 -62 -6 c-106 -12 -97 -20 -102 93 -2
54 -6 101 -8 103 -3 2 -28 1 -55 -1 l-51 -4 4 -161 c2 -89 7 -209 10 -267 l7
-105 40 4 c22 2 48 4 59 5 18 0 18 7 13 107 l-6 107 75 7 c41 4 78 4 82 1 3
-4 8 -54 10 -112 l4 -104 57 6 c31 4 59 9 62 13 4 3 3 38 -1 76 -5 39 -14 131
-21 205 -7 74 -15 160 -18 190 l-6 55 -54 -8z"/>
<path d="M4656 2356 c-3 -72 -8 -190 -11 -262 l-6 -131 148 -6 c195 -9 187
-11 191 48 2 26 0 51 -5 56 -4 4 -52 9 -106 10 l-97 1 0 49 0 48 82 3 83 3 0
45 0 45 -83 3 -82 3 0 49 0 50 100 0 100 0 0 49 0 49 -92 6 c-51 3 -121 7
-155 9 l-61 3 -6 -130z"/>
<path d="M3283 1981 c-74 -46 -42 -161 44 -161 73 0 110 89 61 144 -32 35 -66
41 -105 17z"/>
<path d="M6666 1964 c-56 -57 -19 -148 61 -148 27 0 42 7 64 32 39 44 38 82
-2 116 -41 35 -88 35 -123 0z"/>
<path d="M3599 1862 c-46 -38 -17 -122 43 -122 61 0 90 76 45 118 -28 27 -57
28 -88 4z"/>
<path d="M6365 1855 c-50 -50 -21 -115 51 -115 61 0 96 78 54 120 -28 28 -75
26 -105 -5z"/>
<path d="M3935 1808 c-38 -20 -55 -51 -55 -101 0 -40 5 -53 29 -78 16 -16 38
-29 48 -29 34 0 93 76 93 120 0 31 -29 76 -57 89 -29 13 -33 13 -58 -1z"/>
<path d="M6019 1781 c-90 -90 37 -246 130 -160 17 16 21 32 21 78 0 50 -4 62
-26 85 -37 37 -86 35 -125 -3z"/>
<path d="M5666 1749 c-40 -32 -36 -82 10 -125 l37 -33 -34 -8 c-23 -6 -35 -16
-37 -30 -9 -58 119 -72 165 -18 43 49 26 109 -37 133 l-25 10 27 12 c37 18 44
41 18 62 -30 25 -91 23 -124 -3z"/>
<path d="M4259 1735 c-30 -16 -49 -60 -49 -115 0 -45 41 -88 92 -96 30 -5 38
-2 66 30 28 32 32 44 32 92 0 45 -4 59 -25 79 -28 29 -75 32 -116 10z"/>
<path d="M4593 1730 c-31 -13 -46 -46 -39 -89 3 -20 8 -58 10 -85 7 -78 66
-103 120 -50 45 46 32 112 -26 134 l-33 13 38 9 c49 13 51 43 2 64 -39 16 -42
16 -72 4z"/>
<path d="M5341 1717 c-42 -14 -55 -52 -49 -139 7 -92 65 -135 126 -92 20 13
22 24 21 92 0 93 -16 146 -44 149 -11 1 -35 -3 -54 -10z"/>
<path d="M4973 1703 c-41 -8 -63 -49 -63 -117 0 -48 5 -67 20 -83 40 -44 113
-38 146 12 22 34 14 139 -13 166 -20 20 -57 29 -90 22z"/>
</g>
</svg>
